<?xml version="1.0" encoding="UTF-8"?>
<svg xmlns="http://www.w3.org/2000/svg" width="1080" height="1080" viewBox="0 0 1080 1080" role="img" aria-label="Every pallet has a clock">
  <defs>
    <style>
      .serif { font-family: Georgia, 'Times New Roman', serif; }
      .sans { font-family: Inter, Arial, Helvetica, sans-serif; }
      .mono { font-family: 'Arial Narrow', 'Roboto Condensed', Arial, sans-serif; }
    </style>
    <radialGradient id="glow" cx="50%" cy="38%" r="70%">
      <stop offset="0%" stop-color="#1a1a1a"/>
      <stop offset="100%" stop-color="#050505"/>
    </radialGradient>
  </defs>
  <rect width="1080" height="1080" fill="url(#glow)"/>
  <rect x="28" y="28" width="1024" height="1024" fill="none" stroke="#f5f1ea" stroke-width="1" opacity="0.18"/>
  
    <text x="64" y="78" class="mono" font-size="21" letter-spacing="6" fill="#b8b1a7">MECHANISM</text>
    <line x1="64" y1="104" x2="1016" y2="104" stroke="#d60000" stroke-width="3" opacity="0.85"/>
  
  
    <text x="64" y="210" class="serif" font-size="86" font-weight="800" fill="#f5f1ea">Every pallet</text>
    <text x="64" y="315" class="serif" font-size="112" font-weight="900" fill="#d60000">has a clock</text>
  
  <text x="68" y="430" class="sans" font-size="30" font-weight="500" fill="#f5f1ea">Tariffs pull orders forward.</text>
<text x="68" y="475" class="sans" font-size="30" font-weight="500" fill="#f5f1ea">Freight GRIs reward early booking.</text>
<text x="68" y="520" class="sans" font-size="30" font-weight="500" fill="#f5f1ea">Supplier delays justify safety stock.</text>
  
      <g transform="translate(90 570)">
        
    <g transform="translate(0 0)">
      <circle cx="105" cy="105" r="92" fill="#171717" stroke="#f5f1ea" stroke-width="4"/>
      <path d="M105 105 L105 48 M105 105 L154 134" stroke="#d60000" stroke-width="7" stroke-linecap="round"/>
      <text x="37" y="247" class="mono" font-size="21" letter-spacing="4" fill="#f5f1ea">TARIFF</text>
    </g>
  
        
    <g transform="translate(300 0)">
      <circle cx="105" cy="105" r="92" fill="#171717" stroke="#f5f1ea" stroke-width="4"/>
      <path d="M105 105 L105 48 M105 105 L154 134" stroke="#d60000" stroke-width="7" stroke-linecap="round"/>
      <text x="37" y="247" class="mono" font-size="21" letter-spacing="4" fill="#f5f1ea">FREIGHT</text>
    </g>
  
        
    <g transform="translate(600 0)">
      <circle cx="105" cy="105" r="92" fill="#171717" stroke="#f5f1ea" stroke-width="4"/>
      <path d="M105 105 L105 48 M105 105 L154 134" stroke="#d60000" stroke-width="7" stroke-linecap="round"/>
      <text x="37" y="247" class="mono" font-size="21" letter-spacing="4" fill="#f5f1ea">SUPPLIER</text>
    </g>
  
        <rect x="303" y="180" width="250" height="88" rx="0" fill="#171717" stroke="#f5f1ea" stroke-width="2"/>
        <text x="345" y="235" class="mono" font-size="24" letter-spacing="4" fill="#f5f1ea">INVENTORY</text>
        <path d="M105 112 C210 145, 260 180, 303 218 M405 112 L428 180 M705 112 C625 150, 590 182, 553 218" stroke="#d60000" stroke-width="4" fill="none"/>
      </g>
    
  
    <text x="64" y="1008" class="mono" font-size="22" letter-spacing="7" fill="#f5f1ea">EST. 2026</text>
    <text x="418" y="1008" class="mono" font-size="20" letter-spacing="8" fill="#f5f1ea">FOLLOW THE CONSTRAINT</text>
    <text x="920" y="1008" class="mono" font-size="22" letter-spacing="5" fill="#f5f1ea">04/08</text>
  
</svg>