<?xml version="1.0" encoding="UTF-8"?>
<svg xmlns="http://www.w3.org/2000/svg" width="1080" height="1080" viewBox="0 0 1080 1080" role="img" aria-label="Inventory is a Timing Bet">
  <defs>
    <style>
      .serif { font-family: Georgia, 'Times New Roman', serif; }
      .sans { font-family: Inter, Arial, Helvetica, sans-serif; }
      .mono { font-family: 'Arial Narrow', 'Roboto Condensed', Arial, sans-serif; }
    </style>
    <radialGradient id="glow" cx="50%" cy="38%" r="70%">
      <stop offset="0%" stop-color="#1a1a1a"/>
      <stop offset="100%" stop-color="#050505"/>
    </radialGradient>
  </defs>
  <rect width="1080" height="1080" fill="url(#glow)"/>
  <rect x="28" y="28" width="1024" height="1024" fill="none" stroke="#f5f1ea" stroke-width="1" opacity="0.18"/>
  
    <text x="64" y="78" class="mono" font-size="21" letter-spacing="6" fill="#b8b1a7">SUPPLY CHAIN SIGNALS</text>
    <line x1="64" y1="104" x2="1016" y2="104" stroke="#d60000" stroke-width="3" opacity="0.85"/>
  
  
    <text x="64" y="230" class="serif" font-size="86" font-weight="800" fill="#f5f1ea">Inventory is a</text>
    <text x="64" y="335" class="serif" font-size="112" font-weight="900" fill="#d60000">Timing Bet</text>
  
  <text x="68" y="520" class="sans" font-size="33" font-weight="500" fill="#f5f1ea">The question is no longer:</text>
<text x="68" y="565" class="sans" font-size="33" font-weight="500" fill="#f5f1ea">Do we have enough?</text>
<text x="68" y="610" class="sans" font-size="33" font-weight="500" fill="#f5f1ea">It is: which calendar forced this stock into the network?</text>
  <path d="M0 760 H250 l14 -18 l19 72 l20 -110 l23 96 l22 -52 l15 31 l24 -19 H430 l18 -10 l15 38 l19 -76 l22 95 l18 -55 l16 28 l30 -10 H720 l15 -36 l22 92 l24 -116 l22 104 l19 -52 l17 31 l22 -21 H1080" fill="none" stroke="#d60000" stroke-width="5" stroke-linejoin="round" stroke-linecap="round" opacity="0.95"/>
  
    <text x="64" y="1008" class="mono" font-size="22" letter-spacing="7" fill="#f5f1ea">EST. 2026</text>
    <text x="418" y="1008" class="mono" font-size="20" letter-spacing="8" fill="#f5f1ea">FOLLOW THE CONSTRAINT</text>
    <text x="920" y="1008" class="mono" font-size="22" letter-spacing="5" fill="#f5f1ea">01/08</text>
  
</svg>